<svg width="200" height="200" viewBox="0 0 200 200" xmlns="http://www.w3.org/2000/svg">
    <circle cx="100" cy="100" r="95" fill="#331B3F"/>
    <path d="M130 70c0-20-13-35-30-35s-30 15-30 35c0 5 1 10 3 14l-8 36c-1 4 2 8 6 8h58c4 0 7-4 6-8l-8-36c2-4 3-9 3-14z" fill="#ACC7B4"/>
    <circle cx="85" cy="65" r="5" fill="#331B3F"/>
    <circle cx="115" cy="65" r="5" fill="#331B3F"/>
    <path d="M100 85c-8 0-15 4-15 10s7 10 15 10 15-4 15-10-7-10-15-10z" fill="#331B3F"/>
    <path d="M70 50c-5-5-15-5-20 0s-5 15 0 20 15 5 20 0 5-15 0-20z" fill="#ACC7B4"/>
    <path d="M150 50c-5-5-15-5-20 0s-5 15 0 20 15 5 20 0 5-15 0-20z" fill="#ACC7B4"/>
</svg> 